<?xml version="1.0" standalone="no"?>
<!DOCTYPE svg PUBLIC "-//W3C//DTD SVG 20010904//EN"
 "http://www.w3.org/TR/2001/REC-SVG-20010904/DTD/svg10.dtd">
<svg version="1.0" xmlns="http://www.w3.org/2000/svg"
 width="700.000000pt" height="700.000000pt" viewBox="0 0 700.000000 700.000000"
 preserveAspectRatio="xMidYMid meet">
<metadata>
Created by potrace 1.11, written by Peter Selinger 2001-2013
</metadata>
<g transform="translate(0.000000,700.000000) scale(0.100000,-0.100000)"
fill="#000000" stroke="none">
<path d="M4775 6728 c-16 -5 -39 -13 -50 -18 -11 -5 -54 -21 -95 -36 -80 -28
-155 -56 -340 -124 -63 -23 -162 -59 -220 -80 -58 -21 -242 -88 -409 -149
-167 -61 -310 -111 -317 -111 -7 0 -18 19 -25 43 -6 23 -16 48 -21 55 -6 6 -8
12 -5 12 3 0 -6 28 -20 62 -14 35 -27 69 -29 78 -11 51 -70 189 -88 207 -32
34 -63 33 -166 -4 -175 -65 -274 -101 -365 -133 -49 -17 -99 -35 -110 -40 -65
-28 -155 -60 -167 -60 -8 0 -18 -4 -24 -9 -5 -4 -52 -23 -104 -41 -52 -18
-108 -38 -125 -45 -16 -7 -68 -26 -115 -43 -233 -84 -477 -174 -495 -182 -11
-4 -123 -46 -250 -92 -254 -91 -281 -108 -271 -162 5 -28 189 -543 231 -646 7
-19 86 -235 175 -480 89 -245 177 -485 195 -535 18 -49 104 -283 190 -520 86
-236 181 -495 210 -575 29 -80 88 -239 130 -355 42 -115 94 -258 116 -317 71
-195 117 -321 159 -438 23 -63 46 -124 50 -135 20 -46 16 -57 -25 -71 -52 -19
-85 -51 -85 -84 0 -22 76 -245 110 -325 5 -11 25 -67 45 -125 20 -58 41 -116
46 -129 5 -13 63 -170 128 -350 66 -179 127 -340 136 -356 26 -45 95 -93 153
-107 98 -22 207 34 269 140 49 83 44 104 -132 587 -163 448 -188 517 -210 575
-8 19 -31 82 -52 139 -48 131 -70 152 -141 132 -26 -7 -53 -14 -61 -15 -9 -1
-60 128 -157 394 -80 217 -151 413 -158 435 l-14 40 67 23 c66 24 159 58 196
73 11 4 151 55 312 113 161 58 302 110 315 115 13 5 57 22 98 36 41 15 84 30
95 35 11 4 79 29 150 55 72 26 149 54 173 62 25 10 46 12 51 7 4 -5 33 -80 64
-166 l56 -157 -19 -43 c-26 -56 -25 -81 3 -112 24 -28 60 -38 92 -25 11 5 274
100 585 213 311 113 702 255 870 316 168 62 328 120 355 130 253 88 295 111
295 159 0 13 -23 88 -51 165 -28 78 -80 222 -116 321 -35 99 -71 196 -78 215
-15 40 -72 194 -141 385 -25 72 -60 166 -76 210 -16 44 -33 91 -38 105 -4 14
-22 63 -40 110 -17 47 -35 96 -40 110 -4 14 -29 81 -55 150 -26 69 -48 130
-49 135 -2 6 -6 17 -9 25 -9 24 -377 1037 -404 1115 -38 108 -81 139 -158 113z"/>
</g>
</svg>
